<?xml version="1.0" standalone="no"?>
<!DOCTYPE svg PUBLIC "-//W3C//DTD SVG 20010904//EN"
 "http://www.w3.org/TR/2001/REC-SVG-20010904/DTD/svg10.dtd">
<svg version="1.0" xmlns="http://www.w3.org/2000/svg"
 width="700.000000pt" height="700.000000pt" viewBox="0 0 700.000000 700.000000"
 preserveAspectRatio="xMidYMid meet">
<metadata>
Created by potrace 1.14, written by Peter Selinger 2001-2017
</metadata>
<g transform="translate(0.000000,700.000000) scale(0.100000,-0.100000)"
fill="#000000" stroke="none">
<path d="M1377 5284 c-1 -1 -40 -4 -87 -8 -367 -27 -659 -163 -827 -386 -71
-94 -131 -237 -148 -352 -9 -56 -9 -223 0 -268 49 -264 173 -420 438 -550 87
-42 308 -124 367 -135 10 -2 45 -11 77 -19 32 -9 126 -32 208 -51 83 -20 171
-42 196 -51 25 -8 54 -16 65 -18 11 -2 63 -20 117 -41 246 -92 361 -206 374
-372 19 -248 -147 -423 -458 -484 -173 -33 -417 -31 -610 7 -202 39 -463 150
-612 259 -44 32 -82 54 -87 49 -5 -5 -42 -81 -84 -168 l-75 -159 62 -50 c210
-167 548 -290 897 -324 94 -10 352 -9 445 1 256 26 464 100 631 223 154 115
250 256 300 443 20 76 27 272 12 346 -54 274 -219 447 -551 578 -65 26 -350
111 -405 121 -76 13 -391 98 -481 129 -238 82 -375 197 -397 333 -18 111 -9
186 35 278 73 156 252 254 529 290 85 11 329 5 407 -11 11 -2 34 -7 50 -9 145
-26 330 -92 459 -165 50 -28 93 -47 97 -43 4 5 37 82 74 172 l68 164 -23 17
c-13 10 -69 41 -124 68 -181 91 -417 157 -641 178 -66 6 -293 12 -298 8z"/>
<path d="M3230 3720 l0 -1530 23 -1 c28 -1 250 -1 335 0 l62 1 0 1107 0 1108
186 -310 c103 -171 195 -325 205 -343 31 -54 180 -305 204 -342 26 -42 81
-133 105 -175 9 -16 47 -79 84 -140 36 -60 70 -117 75 -125 5 -8 62 -104 127
-212 l118 -198 102 0 101 0 184 308 c101 169 189 316 195 327 6 11 68 117 139
235 70 118 169 285 220 370 51 85 105 178 122 205 17 28 76 128 133 223 57 95
106 174 109 176 3 2 7 -493 8 -1101 1 -608 4 -1107 6 -1109 4 -5 232 -7 369
-5 l47 1 -4 1523 c-1 837 -3 1525 -4 1530 -1 4 -81 7 -179 7 l-177 0 -60 -102
c-33 -56 -69 -117 -80 -137 -11 -20 -54 -92 -94 -161 -74 -126 -126 -214 -308
-525 -55 -93 -208 -354 -340 -580 -132 -225 -251 -428 -264 -451 -13 -22 -44
-75 -68 -117 -25 -42 -46 -75 -48 -73 -4 4 -292 486 -338 566 -17 30 -155 262
-305 515 -150 253 -314 530 -365 615 -51 85 -131 221 -180 303 l-87 147 -179
0 -179 0 0 -1530z"/>
</g>
</svg>
