<svg width="304" height="63" viewBox="0 0 304 63" fill="none" xmlns="http://www.w3.org/2000/svg">
<path d="M12.287 31.344C9.99367 31.344 7.80067 31 5.708 30.312C3.61533 29.5953 1.967 28.678 0.763 27.56L2.354 24.206C3.50067 25.2093 4.96267 26.0407 6.74 26.7C8.51733 27.3593 10.3663 27.689 12.287 27.689C14.0357 27.689 15.4547 27.4883 16.544 27.087C17.6333 26.6857 18.436 26.141 18.952 25.453C19.468 24.7363 19.726 23.9337 19.726 23.045C19.726 22.013 19.382 21.1817 18.694 20.551C18.0347 19.9203 17.1603 19.4187 16.071 19.046C15.0103 18.6447 13.835 18.3007 12.545 18.014C11.255 17.7273 9.95067 17.3977 8.632 17.025C7.342 16.6237 6.15233 16.122 5.063 15.52C4.00233 14.918 3.14233 14.1153 2.483 13.112C1.82367 12.08 1.494 10.7613 1.494 9.156C1.494 7.608 1.89533 6.189 2.698 4.899C3.52933 3.58033 4.79067 2.534 6.482 1.76C8.202 0.957333 10.3807 0.556 13.018 0.556C14.7667 0.556 16.501 0.785333 18.221 1.244C19.941 1.70266 21.4317 2.362 22.693 3.222L21.274 6.662C19.984 5.802 18.6223 5.18567 17.189 4.813C15.7557 4.41167 14.3653 4.211 13.018 4.211C11.3267 4.211 9.93633 4.426 8.847 4.856C7.75767 5.286 6.955 5.85933 6.439 6.576C5.95167 7.29267 5.708 8.09533 5.708 8.984C5.708 10.0447 6.03767 10.8903 6.697 11.521C7.385 12.1517 8.25933 12.6533 9.32 13.026C10.4093 13.3987 11.599 13.7427 12.889 14.058C14.179 14.3447 15.469 14.6743 16.759 15.047C18.0777 15.4197 19.2673 15.907 20.328 16.509C21.4173 17.111 22.2917 17.9137 22.951 18.917C23.6103 19.9203 23.94 21.2103 23.94 22.787C23.94 24.3063 23.5243 25.7253 22.693 27.044C21.8617 28.334 20.5717 29.3803 18.823 30.183C17.103 30.957 14.9243 31.344 12.287 31.344ZM107.276 31V0.899998H110.802L124.304 23.647H122.412L135.742 0.899998H139.268L139.311 31H135.183L135.14 7.393H136.129L124.261 27.345H122.283L110.329 7.393H111.404V31H107.276Z" fill="#A80000"/>
<path d="M39.6 31.264C37.84 31.264 36.201 30.967 34.683 30.373C33.187 29.779 31.889 28.954 30.789 27.898C29.689 26.82 28.831 25.566 28.215 24.136C27.599 22.706 27.291 21.144 27.291 19.45C27.291 17.756 27.599 16.194 28.215 14.764C28.831 13.334 29.689 12.091 30.789 11.035C31.889 9.957 33.187 9.121 34.683 8.527C36.179 7.933 37.818 7.636 39.6 7.636C41.36 7.636 42.977 7.933 44.451 8.527C45.947 9.099 47.245 9.924 48.345 11.002C49.467 12.058 50.325 13.301 50.919 14.731C51.535 16.161 51.843 17.734 51.843 19.45C51.843 21.166 51.535 22.739 50.919 24.169C50.325 25.599 49.467 26.853 48.345 27.931C47.245 28.987 45.947 29.812 44.451 30.406C42.977 30.978 41.36 31.264 39.6 31.264ZM39.6 28.327C40.876 28.327 42.053 28.107 43.131 27.667C44.231 27.227 45.177 26.611 45.969 25.819C46.783 25.005 47.41 24.059 47.85 22.981C48.312 21.903 48.543 20.726 48.543 19.45C48.543 18.174 48.312 16.997 47.85 15.919C47.41 14.841 46.783 13.906 45.969 13.114C45.177 12.3 44.231 11.673 43.131 11.233C42.053 10.793 40.876 10.573 39.6 10.573C38.302 10.573 37.103 10.793 36.003 11.233C34.925 11.673 33.979 12.3 33.165 13.114C32.351 13.906 31.713 14.841 31.251 15.919C30.811 16.997 30.591 18.174 30.591 19.45C30.591 20.726 30.811 21.903 31.251 22.981C31.713 24.059 32.351 25.005 33.165 25.819C33.979 26.611 34.925 27.227 36.003 27.667C37.103 28.107 38.302 28.327 39.6 28.327ZM59.8569 18.823H71.7699V21.661H59.8569V18.823ZM60.1869 31H56.8869V7.9H73.1889V10.771H60.1869V31ZM82.5823 31V10.771H74.6623V7.9H93.7693V10.771H85.8493V31H82.5823ZM150.297 17.866H162.177V20.671H150.297V17.866ZM150.594 28.129H164.058V31H147.294V7.9H163.596V10.771H150.594V28.129ZM169.402 31V7.9H179.764C182.426 7.9 184.472 8.439 185.902 9.517C187.332 10.573 188.047 12.025 188.047 13.873C188.047 15.127 187.761 16.183 187.189 17.041C186.639 17.899 185.891 18.559 184.945 19.021C183.999 19.483 182.976 19.714 181.876 19.714L182.47 18.724C183.79 18.724 184.956 18.955 185.968 19.417C186.98 19.879 187.783 20.561 188.377 21.463C188.971 22.343 189.268 23.443 189.268 24.763C189.268 26.743 188.52 28.283 187.024 29.383C185.55 30.461 183.35 31 180.424 31H169.402ZM172.702 28.327H180.292C182.118 28.327 183.515 28.019 184.483 27.403C185.451 26.787 185.935 25.819 185.935 24.499C185.935 23.157 185.451 22.178 184.483 21.562C183.515 20.946 182.118 20.638 180.292 20.638H172.405V17.965H179.467C181.139 17.965 182.437 17.657 183.361 17.041C184.285 16.425 184.747 15.501 184.747 14.269C184.747 13.037 184.285 12.113 183.361 11.497C182.437 10.881 181.139 10.573 179.467 10.573H172.702V28.327ZM197.38 17.866H209.26V20.671H197.38V17.866ZM197.677 28.129H211.141V31H194.377V7.9H210.679V10.771H197.677V28.129ZM216.485 31V7.9H219.785V28.129H232.292V31H216.485ZM1.398 58V42.6H3.202L10.11 54.238H9.142L15.962 42.6H17.766L17.788 58H15.676L15.654 45.922H16.16L10.088 56.13H9.076L2.96 45.922H3.51V58H1.398ZM27.4216 58.132C26.1749 58.132 25.0749 57.8753 24.1216 57.362C23.1829 56.8487 22.4496 56.1447 21.9216 55.25C21.4083 54.3553 21.1516 53.3287 21.1516 52.17C21.1516 51.0113 21.4009 49.9847 21.8996 49.09C22.4129 48.1953 23.1096 47.4987 23.9896 47C24.8843 46.4867 25.8889 46.23 27.0036 46.23C28.1329 46.23 29.1303 46.4793 29.9956 46.978C30.8609 47.4767 31.5356 48.1807 32.0196 49.09C32.5183 49.9847 32.7676 51.0333 32.7676 52.236C32.7676 52.324 32.7603 52.4267 32.7456 52.544C32.7456 52.6613 32.7383 52.7713 32.7236 52.874H22.8016V51.356H31.6236L30.7656 51.884C30.7803 51.136 30.6263 50.4687 30.3036 49.882C29.9809 49.2953 29.5336 48.8407 28.9616 48.518C28.4043 48.1807 27.7516 48.012 27.0036 48.012C26.2703 48.012 25.6176 48.1807 25.0456 48.518C24.4736 48.8407 24.0263 49.3027 23.7036 49.904C23.3809 50.4907 23.2196 51.1653 23.2196 51.928V52.28C23.2196 53.0573 23.3956 53.754 23.7476 54.37C24.1143 54.9713 24.6203 55.4407 25.2656 55.778C25.9109 56.1153 26.6516 56.284 27.4876 56.284C28.1769 56.284 28.8003 56.1667 29.3576 55.932C29.9296 55.6973 30.4283 55.3453 30.8536 54.876L32.0196 56.24C31.4916 56.856 30.8316 57.3253 30.0396 57.648C29.2623 57.9707 28.3896 58.132 27.4216 58.132ZM41.434 58.176C40.466 58.176 39.608 58.022 38.86 57.714C38.1267 57.406 37.496 56.9513 36.968 56.35C36.44 55.734 36.0367 54.964 35.758 54.04C35.494 53.1013 35.362 52.0013 35.362 50.74C35.362 49.7427 35.45 48.848 35.626 48.056C35.802 47.264 36.0514 46.56 36.374 45.944C36.7114 45.328 37.122 44.7927 37.606 44.338C38.1047 43.8833 38.662 43.5093 39.278 43.216C39.9087 42.908 40.598 42.6733 41.346 42.512L46.67 41.324L46.978 43.282L42.072 44.338C41.7787 44.3967 41.4267 44.4847 41.016 44.602C40.6054 44.7193 40.1874 44.9027 39.762 45.152C39.3367 45.3867 38.9407 45.7167 38.574 46.142C38.2074 46.5673 37.914 47.1247 37.694 47.814C37.474 48.4887 37.364 49.3247 37.364 50.322C37.364 50.6007 37.3714 50.8133 37.386 50.96C37.4007 51.1067 37.4154 51.2533 37.43 51.4C37.4594 51.5467 37.4814 51.7667 37.496 52.06L36.616 51.158C36.8507 50.3513 37.2247 49.6473 37.738 49.046C38.2514 48.4447 38.8674 47.9827 39.586 47.66C40.3194 47.3227 41.1187 47.154 41.984 47.154C43.0694 47.154 44.03 47.3887 44.866 47.858C45.7167 48.3273 46.384 48.9727 46.868 49.794C47.352 50.6153 47.594 51.554 47.594 52.61C47.594 53.6807 47.3374 54.6413 46.824 55.492C46.3254 56.328 45.614 56.988 44.69 57.472C43.766 57.9413 42.6807 58.176 41.434 58.176ZM41.632 56.416C42.38 56.416 43.04 56.2547 43.612 55.932C44.184 55.5947 44.6314 55.1473 44.954 54.59C45.2767 54.018 45.438 53.38 45.438 52.676C45.438 51.972 45.2767 51.3487 44.954 50.806C44.6314 50.2633 44.184 49.838 43.612 49.53C43.04 49.2073 42.3654 49.046 41.588 49.046C40.8547 49.046 40.1947 49.2 39.608 49.508C39.0214 49.8013 38.5667 50.2193 38.244 50.762C37.9214 51.29 37.76 51.906 37.76 52.61C37.76 53.314 37.9214 53.9593 38.244 54.546C38.5814 55.118 39.036 55.5727 39.608 55.91C40.1947 56.2473 40.8694 56.416 41.632 56.416ZM55.8025 58.132C54.5558 58.132 53.4558 57.8753 52.5025 57.362C51.5638 56.8487 50.8305 56.1447 50.3025 55.25C49.7891 54.3553 49.5325 53.3287 49.5325 52.17C49.5325 51.0113 49.7818 49.9847 50.2805 49.09C50.7938 48.1953 51.4905 47.4987 52.3705 47C53.2651 46.4867 54.2698 46.23 55.3845 46.23C56.5138 46.23 57.5111 46.4793 58.3765 46.978C59.2418 47.4767 59.9165 48.1807 60.4005 49.09C60.8991 49.9847 61.1485 51.0333 61.1485 52.236C61.1485 52.324 61.1411 52.4267 61.1265 52.544C61.1265 52.6613 61.1191 52.7713 61.1045 52.874H51.1825V51.356H60.0045L59.1465 51.884C59.1611 51.136 59.0071 50.4687 58.6845 49.882C58.3618 49.2953 57.9145 48.8407 57.3425 48.518C56.7851 48.1807 56.1325 48.012 55.3845 48.012C54.6511 48.012 53.9985 48.1807 53.4265 48.518C52.8545 48.8407 52.4071 49.3027 52.0845 49.904C51.7618 50.4907 51.6005 51.1653 51.6005 51.928V52.28C51.6005 53.0573 51.7765 53.754 52.1285 54.37C52.4951 54.9713 53.0011 55.4407 53.6465 55.778C54.2918 56.1153 55.0325 56.284 55.8685 56.284C56.5578 56.284 57.1811 56.1667 57.7385 55.932C58.3105 55.6973 58.8091 55.3453 59.2345 54.876L60.4005 56.24C59.8725 56.856 59.2125 57.3253 58.4205 57.648C57.6431 57.9707 56.7705 58.132 55.8025 58.132ZM62.2955 57.978L62.4275 56.196C62.5302 56.2107 62.6255 56.2253 62.7135 56.24C62.8015 56.2547 62.8822 56.262 62.9555 56.262C63.4249 56.262 63.7915 56.1007 64.0555 55.778C64.3342 55.4553 64.5395 55.03 64.6715 54.502C64.8035 53.9593 64.8989 53.3507 64.9575 52.676C65.0162 52.0013 65.0602 51.3267 65.0895 50.652L65.2875 46.34H74.2415V58H72.1295V47.572L72.6355 48.188H66.6515L67.1355 47.55L66.9815 50.784C66.9375 51.8107 66.8569 52.7713 66.7395 53.666C66.6222 54.5607 66.4389 55.3453 66.1895 56.02C65.9549 56.6947 65.6249 57.2227 65.1995 57.604C64.7889 57.9853 64.2535 58.176 63.5935 58.176C63.4029 58.176 63.1975 58.154 62.9775 58.11C62.7722 58.0807 62.5449 58.0367 62.2955 57.978ZM83.7153 50.3C85.1966 50.3147 86.326 50.652 87.1033 51.312C87.8806 51.972 88.2693 52.9033 88.2693 54.106C88.2693 55.3673 87.844 56.3427 86.9933 57.032C86.1426 57.7067 84.94 58.0367 83.3853 58.022L78.3253 58V46.34H80.4373V50.278L83.7153 50.3ZM83.2093 56.416C84.1626 56.4307 84.8813 56.24 85.3653 55.844C85.864 55.448 86.1133 54.8613 86.1133 54.084C86.1133 53.3213 85.8713 52.764 85.3873 52.412C84.9033 52.06 84.1773 51.8767 83.2093 51.862L80.4373 51.818V56.394L83.2093 56.416ZM101.882 58.132C100.708 58.132 99.6671 57.8753 98.7578 57.362C97.8485 56.8487 97.1298 56.1447 96.6018 55.25C96.0738 54.3407 95.8098 53.314 95.8098 52.17C95.8098 51.0113 96.0738 49.9847 96.6018 49.09C97.1298 48.1953 97.8485 47.4987 98.7578 47C99.6671 46.4867 100.708 46.23 101.882 46.23C103.04 46.23 104.074 46.4867 104.984 47C105.908 47.4987 106.626 48.1953 107.14 49.09C107.668 49.97 107.932 50.9967 107.932 52.17C107.932 53.3287 107.668 54.3553 107.14 55.25C106.626 56.1447 105.908 56.8487 104.984 57.362C104.074 57.8753 103.04 58.132 101.882 58.132ZM101.882 56.284C102.63 56.284 103.297 56.1153 103.884 55.778C104.485 55.4407 104.954 54.964 105.292 54.348C105.629 53.7173 105.798 52.9913 105.798 52.17C105.798 51.334 105.629 50.6153 105.292 50.014C104.954 49.398 104.485 48.9213 103.884 48.584C103.297 48.2467 102.63 48.078 101.882 48.078C101.134 48.078 100.466 48.2467 99.8798 48.584C99.2931 48.9213 98.8238 49.398 98.4718 50.014C98.1198 50.6153 97.9438 51.334 97.9438 52.17C97.9438 52.9913 98.1198 53.7173 98.4718 54.348C98.8238 54.964 99.2931 55.4407 99.8798 55.778C100.466 56.1153 101.134 56.284 101.882 56.284ZM112.862 58V47.638L113.39 48.188H108.594V46.34H119.242V48.188H114.468L114.974 47.638V58H112.862ZM127.31 58V46.34H138.112V58H136V47.66L136.506 48.188H128.916L129.422 47.66V58H127.31ZM148.38 58.132C147.412 58.132 146.525 57.912 145.718 57.472C144.926 57.0173 144.288 56.35 143.804 55.47C143.335 54.59 143.1 53.49 143.1 52.17C143.1 50.85 143.328 49.75 143.782 48.87C144.252 47.99 144.882 47.33 145.674 46.89C146.481 46.45 147.383 46.23 148.38 46.23C149.524 46.23 150.536 46.4793 151.416 46.978C152.296 47.4767 152.993 48.1733 153.506 49.068C154.02 49.948 154.276 50.982 154.276 52.17C154.276 53.358 154.02 54.3993 153.506 55.294C152.993 56.1887 152.296 56.8853 151.416 57.384C150.536 57.8827 149.524 58.132 148.38 58.132ZM142.198 62.268V46.34H144.222V49.486L144.09 52.192L144.31 54.898V62.268H142.198ZM148.204 56.284C148.952 56.284 149.62 56.1153 150.206 55.778C150.808 55.4407 151.277 54.964 151.614 54.348C151.966 53.7173 152.142 52.9913 152.142 52.17C152.142 51.334 151.966 50.6153 151.614 50.014C151.277 49.398 150.808 48.9213 150.206 48.584C149.62 48.2467 148.952 48.078 148.204 48.078C147.471 48.078 146.804 48.2467 146.202 48.584C145.616 48.9213 145.146 49.398 144.794 50.014C144.457 50.6153 144.288 51.334 144.288 52.17C144.288 52.9913 144.457 53.7173 144.794 54.348C145.146 54.964 145.616 55.4407 146.202 55.778C146.804 56.1153 147.471 56.284 148.204 56.284ZM162.339 58.132C161.165 58.132 160.124 57.8753 159.215 57.362C158.305 56.8487 157.587 56.1447 157.059 55.25C156.531 54.3407 156.267 53.314 156.267 52.17C156.267 51.0113 156.531 49.9847 157.059 49.09C157.587 48.1953 158.305 47.4987 159.215 47C160.124 46.4867 161.165 46.23 162.339 46.23C163.497 46.23 164.531 46.4867 165.441 47C166.365 47.4987 167.083 48.1953 167.597 49.09C168.125 49.97 168.389 50.9967 168.389 52.17C168.389 53.3287 168.125 54.3553 167.597 55.25C167.083 56.1447 166.365 56.8487 165.441 57.362C164.531 57.8753 163.497 58.132 162.339 58.132ZM162.339 56.284C163.087 56.284 163.754 56.1153 164.341 55.778C164.942 55.4407 165.411 54.964 165.749 54.348C166.086 53.7173 166.255 52.9913 166.255 52.17C166.255 51.334 166.086 50.6153 165.749 50.014C165.411 49.398 164.942 48.9213 164.341 48.584C163.754 48.2467 163.087 48.078 162.339 48.078C161.591 48.078 160.923 48.2467 160.337 48.584C159.75 48.9213 159.281 49.398 158.929 50.014C158.577 50.6153 158.401 51.334 158.401 52.17C158.401 52.9913 158.577 53.7173 158.929 54.348C159.281 54.964 159.75 55.4407 160.337 55.778C160.923 56.1153 161.591 56.284 162.339 56.284ZM171.439 58V46.34H173.551V54.832L180.701 46.34H182.615V58H180.503V49.508L173.375 58H171.439ZM189.931 58.154C189.051 58.154 188.185 58.044 187.335 57.824C186.499 57.5893 185.751 57.2593 185.091 56.834L185.729 55.228C186.286 55.58 186.924 55.8587 187.643 56.064C188.361 56.2547 189.087 56.35 189.821 56.35C190.495 56.35 191.075 56.2693 191.559 56.108C192.057 55.9467 192.439 55.7267 192.703 55.448C192.967 55.1547 193.099 54.8173 193.099 54.436C193.099 53.8933 192.857 53.4753 192.373 53.182C191.889 52.8887 191.214 52.742 190.349 52.742H188.237V51.224H190.217C190.73 51.224 191.177 51.1653 191.559 51.048C191.94 50.9307 192.233 50.7547 192.439 50.52C192.659 50.2707 192.769 49.9847 192.769 49.662C192.769 49.31 192.644 49.0093 192.395 48.76C192.145 48.5107 191.793 48.32 191.339 48.188C190.899 48.056 190.378 47.99 189.777 47.99C189.19 48.0047 188.589 48.0853 187.973 48.232C187.371 48.3787 186.755 48.606 186.125 48.914L185.553 47.264C186.257 46.9267 186.946 46.67 187.621 46.494C188.31 46.3033 188.992 46.2007 189.667 46.186C190.679 46.1567 191.581 46.274 192.373 46.538C193.165 46.7873 193.788 47.154 194.243 47.638C194.712 48.122 194.947 48.694 194.947 49.354C194.947 49.9113 194.771 50.41 194.419 50.85C194.067 51.2753 193.597 51.6127 193.011 51.862C192.424 52.1113 191.749 52.236 190.987 52.236L191.075 51.73C192.38 51.73 193.407 51.9867 194.155 52.5C194.903 53.0133 195.277 53.71 195.277 54.59C195.277 55.294 195.042 55.9173 194.573 56.46C194.103 56.988 193.465 57.406 192.659 57.714C191.867 58.0073 190.957 58.154 189.931 58.154ZM198.487 58V46.34H203.899C205.263 46.34 206.334 46.604 207.111 47.132C207.903 47.6453 208.299 48.3787 208.299 49.332C208.299 50.2853 207.925 51.026 207.177 51.554C206.444 52.0673 205.469 52.324 204.251 52.324L204.581 51.752C205.975 51.752 207.009 52.0087 207.683 52.522C208.358 53.0353 208.695 53.7907 208.695 54.788C208.695 55.8 208.314 56.592 207.551 57.164C206.803 57.7213 205.652 58 204.097 58H198.487ZM200.555 56.372H203.943C204.823 56.372 205.483 56.24 205.923 55.976C206.363 55.6973 206.583 55.2573 206.583 54.656C206.583 54.04 206.378 53.5927 205.967 53.314C205.571 53.0207 204.941 52.874 204.075 52.874H200.555V56.372ZM200.555 51.356H203.723C204.53 51.356 205.139 51.2093 205.549 50.916C205.975 50.608 206.187 50.1827 206.187 49.64C206.187 49.0827 205.975 48.6647 205.549 48.386C205.139 48.1073 204.53 47.968 203.723 47.968H200.555V51.356ZM216.995 58.132C215.822 58.132 214.78 57.8753 213.871 57.362C212.962 56.8487 212.243 56.1447 211.715 55.25C211.187 54.3407 210.923 53.314 210.923 52.17C210.923 51.0113 211.187 49.9847 211.715 49.09C212.243 48.1953 212.962 47.4987 213.871 47C214.78 46.4867 215.822 46.23 216.995 46.23C218.154 46.23 219.188 46.4867 220.097 47C221.021 47.4987 221.74 48.1953 222.253 49.09C222.781 49.97 223.045 50.9967 223.045 52.17C223.045 53.3287 222.781 54.3553 222.253 55.25C221.74 56.1447 221.021 56.8487 220.097 57.362C219.188 57.8753 218.154 58.132 216.995 58.132ZM216.995 56.284C217.743 56.284 218.41 56.1153 218.997 55.778C219.598 55.4407 220.068 54.964 220.405 54.348C220.742 53.7173 220.911 52.9913 220.911 52.17C220.911 51.334 220.742 50.6153 220.405 50.014C220.068 49.398 219.598 48.9213 218.997 48.584C218.41 48.2467 217.743 48.078 216.995 48.078C216.247 48.078 215.58 48.2467 214.993 48.584C214.406 48.9213 213.937 49.398 213.585 50.014C213.233 50.6153 213.057 51.334 213.057 52.17C213.057 52.9913 213.233 53.7173 213.585 54.348C213.937 54.964 214.406 55.4407 214.993 55.778C215.58 56.1153 216.247 56.284 216.995 56.284ZM233.973 57.01V48.188H228.913L228.803 50.432C228.774 51.1653 228.722 51.8767 228.649 52.566C228.59 53.2407 228.488 53.864 228.341 54.436C228.209 55.008 228.011 55.4773 227.747 55.844C227.483 56.2107 227.131 56.438 226.691 56.526L224.601 56.152C225.056 56.1667 225.422 56.02 225.701 55.712C225.98 55.3893 226.192 54.9493 226.339 54.392C226.5 53.8347 226.618 53.204 226.691 52.5C226.764 51.7813 226.823 51.0407 226.867 50.278L227.043 46.34H236.085V57.01H233.973ZM224.139 60.706V56.152H237.867V60.706H235.887V58H226.141V60.706H224.139ZM240.618 58V46.34H242.73V54.832L249.88 46.34H251.794V58H249.682V49.508L242.554 58H240.618ZM258.204 58V47.638L258.732 48.188H253.936V46.34H264.584V48.188H259.81L260.316 47.638V58H258.204ZM271.42 58.132C270.173 58.132 269.073 57.8753 268.12 57.362C267.181 56.8487 266.448 56.1447 265.92 55.25C265.406 54.3553 265.15 53.3287 265.15 52.17C265.15 51.0113 265.399 49.9847 265.898 49.09C266.411 48.1953 267.108 47.4987 267.988 47C268.882 46.4867 269.887 46.23 271.002 46.23C272.131 46.23 273.128 46.4793 273.994 46.978C274.859 47.4767 275.534 48.1807 276.018 49.09C276.516 49.9847 276.766 51.0333 276.766 52.236C276.766 52.324 276.758 52.4267 276.744 52.544C276.744 52.6613 276.736 52.7713 276.722 52.874H266.8V51.356H275.622L274.764 51.884C274.778 51.136 274.624 50.4687 274.302 49.882C273.979 49.2953 273.532 48.8407 272.96 48.518C272.402 48.1807 271.75 48.012 271.002 48.012C270.268 48.012 269.616 48.1807 269.044 48.518C268.472 48.8407 268.024 49.3027 267.702 49.904C267.379 50.4907 267.218 51.1653 267.218 51.928V52.28C267.218 53.0573 267.394 53.754 267.746 54.37C268.112 54.9713 268.618 55.4407 269.264 55.778C269.909 56.1153 270.65 56.284 271.486 56.284C272.175 56.284 272.798 56.1667 273.356 55.932C273.928 55.6973 274.426 55.3453 274.852 54.876L276.018 56.24C275.49 56.856 274.83 57.3253 274.038 57.648C273.26 57.9707 272.388 58.132 271.42 58.132ZM277.913 57.978L278.045 56.196C278.147 56.2107 278.243 56.2253 278.331 56.24C278.419 56.2547 278.499 56.262 278.573 56.262C279.042 56.262 279.409 56.1007 279.673 55.778C279.951 55.4553 280.157 55.03 280.289 54.502C280.421 53.9593 280.516 53.3507 280.575 52.676C280.633 52.0013 280.677 51.3267 280.707 50.652L280.905 46.34H289.859V58H287.747V47.572L288.253 48.188H282.269L282.753 47.55L282.599 50.784C282.555 51.8107 282.474 52.7713 282.357 53.666C282.239 54.5607 282.056 55.3453 281.807 56.02C281.572 56.6947 281.242 57.2227 280.817 57.604C280.406 57.9853 279.871 58.176 279.211 58.176C279.02 58.176 278.815 58.154 278.595 58.11C278.389 58.0807 278.162 58.0367 277.913 57.978ZM301.4 58V53.908L301.73 54.304H298.012C296.458 54.304 295.24 53.974 294.36 53.314C293.495 52.654 293.062 51.6933 293.062 50.432C293.062 49.0827 293.524 48.0633 294.448 47.374C295.387 46.6847 296.634 46.34 298.188 46.34H303.292V58H301.4ZM292.952 58L296.12 53.534H298.298L295.218 58H292.952ZM301.4 53.248V47.594L301.73 48.188H298.254C297.286 48.188 296.538 48.3713 296.01 48.738C295.482 49.09 295.218 49.6767 295.218 50.498C295.218 52.0233 296.201 52.786 298.166 52.786H301.73L301.4 53.248Z" fill="black"/>
</svg>
